<svg xmlns="http://www.w3.org/2000/svg" xmlns:xlink="http://www.w3.org/1999/xlink" style="vertical-align:-4.255ex" width="52.684ex" height="9.634ex" viewBox="0 -2316.2 22683.2 4148.1"><defs><path id="h" stroke-width="1" d="M60 749l4 1h22l28-24q94-85 137-212t43-264q0-68-10-131T261 12t-37-88-38-67-41-51-32-33-23-19l-4-4H63q-3 0-5 3t-3 9q1 1 11 13Q221-64 221 250T66 725q-10 12-11 13 0 8 5 11z"/><path id="a" stroke-width="1" d="M50 252q0 115 67 221t169 168 204 63q90 0 143-51 9-10 15-17t8-10l1-3q3 0 27 26 7 6 15 14t16 16 10 11l15 15h6q14 0 14-7 0-4-32-137-36-139-36-140-2-5-5-6t-18-2h-16q-6 6-6 9 0 1 1 7t2 20 1 32q0 71-32 124t-109 54q-26 0-56-7t-72-24-83-56-73-93q-32-57-51-133t-19-124q0-114 76-164 48-34 118-34 91 0 162 68t94 148q4 13 6 15t16 2q20 0 20-9 0-5-1-9-29-107-124-184T319-22q-113 0-191 75T50 252z"/><path id="c" stroke-width="1" d="M173 380q0 25-19 25-24 0-50-29t-43-89q-1-1-2-3t-1-3-2-2-3-1-4 0-8 0H27q-6 6-6 9 0 7 8 29t24 52 44 51 63 22q42 0 65-24t24-56q0-17-3-26 0-6-15-44t-31-89-18-89q0-27 5-44 13-43 63-43 37 0 69 34t50 79 29 83 11 55q0 23-8 40t-18 26-18 18-8 22q0 22 19 41t41 19q19 0 34-18t16-58q0-27-12-83t-37-125-71-119-106-51q-64 0-102 33-37 32-37 95 0 31 8 64t41 117q22 64 22 82z"/><path id="d" stroke-width="1" d="M94 250q0 69 10 131t23 107 37 88 38 67 42 52 33 34 25 21h17q14 0 14-9 0-3-17-21t-41-53-49-86-42-138-17-193 17-192 41-139 49-86 42-53 17-21q0-9-15-9h-16l-28 24q-94 85-137 212T94 250z"/><path id="e" stroke-width="1" d="M42 0h-2Q26 0 26 11q0 4 3 16 4 14 7 16t19 3q86 3 135 52 10 10 116 126t105 118Q302 620 297 625q-9 11-63 12h-28q-6 6-6 8t2 19q4 13 10 19h14q34-2 121-2h61q28 0 45 1t20 0q17 0 17-11 0-1-2-13-4-15-7-18t-16-3q-31-3-54-17l77-194 53 59q105 113 105 125 0 18-24 25-5 0-13 2-15 0-15 11 0 2 2 16 4 13 10 19h37q24 0 54-2t41-1q90 0 99 3h8q7-7 7-11-2-25-12-35h-16q-34-1-61-9t-41-17-24-18l-11-9q0 1-95-104l-87-96q0-1 31-80t65-162 37-86q10-9 61-10 35 0 35-9 0-2-2-14-4-16-7-19t-14-3h-33q-30 0-89 1h-93q-32 0-35-1-17 0-17 9 0 1 2 15 2 10 4 14t5 5 9 2 16 1 26 7q17 8 17 10-1 0-47 117l-47 118Q241 95 236 84q-4-8-4-12 0-19 29-25h6q5 0 6-1h4q1 0 3-1t3-3 1-7q0-9-2-16-3-13-6-15t-15-3h-18q-15 0-42 1t-59 0Q64 2 42 0z"/><path id="f" stroke-width="1" d="M78 35v25l16 43 43 18q28 0 50-25t23-88q0-35-9-68t-21-57-26-41-24-27-13-9q-4 0-13 9t-9 13q0 4 11 16t25 30 26 50 16 73V9l-1-1q-2-1-5-2t-6-3-9-2-12-1q-27 0-44 17z"/><path id="g" stroke-width="1" d="M66 637H49q-5 0-10 1t-7 3-2 6 3 17 9 18q2 1 14 1 48-3 109-3 123 0 141 3h10q6-6 6-9t-2-18q-4-13-10-19h-12q-56 0-56-13 0-5 50-147t51-144l3 3q4 4 12 13t21 24 32 37 43 51q92 107 107 126t16 31q0 16-32 19-17 0-17 10 0 2 2 14 3 15 5 18t14 4q2 0 29-1t79-2q27 0 56 1t33 1q17 0 17-9 0-4-3-16t-5-14q-2-6-21-6-72-5-117-50-9-9-140-163L348 273l-26-104Q295 62 295 57q0-11 68-11 16 0 21-1t6-10q0-2-2-12-4-17-6-19t-16-3h-42q-37 0-92 1h-94q-32 0-36-1-18 0-18 8 0 5 3 15l2 6q1 3 1 5t1 4 2 3 3 2 5 1 6 0 9 1 13 0q39 1 51 4t18 13q3 5 29 108l25 103-123 349-2 2-2 2q-1 1-3 2t-4 2-5 2-8 1-9 1-13 1-17 1z"/><path id="b" stroke-width="1" d="M201-11q-75 0-121 49T34 156q0 65 30 123t82 101q76 61 155 61 32 0 40-1 13-3 26-7t35-16 36-30 26-49 12-70q0-107-86-193T201-11zm-80 131q0-50 26-72t59-22q44 0 83 32t62 84q9 21 23 74t14 92q0 44-18 67-24 30-64 30-63 0-111-58-37-44-55-117t-19-110z"/><path id="i" stroke-width="1" d="M56 347q0 13 14 20h637q15-8 15-20 0-11-14-19l-318-1H72q-16 5-16 20zm0-194q0 15 16 20h636q14-10 14-20 0-13-15-20H70q-14 7-14 20z"/><path id="j" stroke-width="1" d="M492 213q-20 0-20 13 0 4 5 24t5 35q0 31-21 38t-97 7h-52q-1-2-35-138T243 52q0-4 11-4t80-2q94 0 124 2t60 13q49 16 81 56t71 131q10 22 13 24 7 2 15 2 20 0 20-13Q613 7 608 2q-3-2-286-2H133Q31 0 31 11q0 2 3 14 4 16 8 18t23 3q27 0 60 3 14 3 19 12 2 5 71 281t70 280q0 7-4 7-8 3-53 5h-31q-6 6-6 8t2 17q4 17 10 21h554q7-4 7-11 0-5-13-112t-14-110q-2-7-20-7h-12q-7 5-7 13l3 23q3 24 3 52 0 30-7 50t-19 31-35 16-47 7-64 2h-47q-88-1-93-3-4-2-6-9-1-3-31-123t-31-122q23-1 48-1h26q66 0 91 15t45 81q4 16 6 18t17 3h8q3 0 5-1t2-1 2-4 3-4l-33-132q-33-133-36-135-3-3-16-3z"/><path id="k" stroke-width="1" d="M118-250V750h137v-40h-97v-920h97v-40H118z"/><path id="l" stroke-width="1" d="M84 237v13l14 20h581q15-8 15-20t-15-20H98q-14 7-14 20z"/><path id="m" stroke-width="1" d="M22 710v40h137V-250H22v40h97v920H22z"/><path id="n" stroke-width="1" d="M109 429q-27 0-43 18t-16 44q0 71 53 123t132 52q91 0 152-56t62-145q0-43-20-82t-48-68-80-74q-36-31-100-92l-59-56 76-1q157 0 167 5 7 2 24 89v3h40v-3q-1-3-13-91T421 3V0H50v31q0 7 6 15t30 35q29 32 50 56 9 10 34 37t34 37 29 33 28 34 23 30 21 32 15 29 13 32 7 30 3 33q0 63-34 109t-97 46q-33 0-58-17t-35-33-10-19q0-1 5-1 18 0 37-14t19-46q0-25-16-42t-45-18z"/><path id="o" stroke-width="1" d="M56 237v13l14 20h299v150l1 150q10 13 19 13 13 0 20-15V270h298q15-8 15-20t-15-20H409V-68q-8-14-18-14h-4q-12 0-18 14v298H70q-14 7-14 20z"/></defs><g fill="currentColor" stroke="currentColor" stroke-width="0"><g transform="matrix(1 0 0 -1 153 -1426)"><use xlink:href="#a"/><use x="760" xlink:href="#b"/><use x="1246" xlink:href="#c"/><g transform="translate(1898)"><use xlink:href="#d"/><use x="389" xlink:href="#e"/><use x="1242" xlink:href="#f"/><use x="1687" xlink:href="#g"/><use x="2450" xlink:href="#h"/></g></g><g transform="matrix(1 0 0 -1 5891 -1426)"><use xlink:href="#i"/><use x="1056" xlink:href="#j"/><g transform="translate(1987)"><use xlink:href="#k"/><g transform="translate(278)"><use xlink:href="#d"/><use x="389" xlink:href="#e"/><use x="1464" xlink:href="#l"/><use x="2464" xlink:href="#j"/><g transform="translate(3396)"><use xlink:href="#k"/><use x="278" xlink:href="#e"/><use x="1131" xlink:href="#m"/></g><use x="4805" xlink:href="#h"/></g><g transform="translate(5640)"><use xlink:href="#d"/><use x="389" xlink:href="#g"/><use x="1375" xlink:href="#l"/><use x="2375" xlink:href="#j"/><g transform="translate(3307)"><use xlink:href="#k"/><use x="278" xlink:href="#g"/><use x="1042" xlink:href="#m"/></g><use x="4627" xlink:href="#h"/></g><use x="10657" xlink:href="#m"/></g></g><g transform="matrix(1 0 0 -1 5891 25)"><use xlink:href="#i"/><use x="1056" xlink:href="#j"/><g transform="translate(1987)"><use xlink:href="#k"/><use x="278" xlink:href="#e"/><use x="1131" xlink:href="#g"/><use x="1894" xlink:href="#m"/></g><use x="4382" xlink:href="#l"/><use x="5383" xlink:href="#n"/><use x="5883" xlink:href="#j"/><g transform="translate(6815)"><use xlink:href="#k"/><use x="278" xlink:href="#g"/><use x="1042" xlink:href="#m"/></g><use x="8302" xlink:href="#j"/><g transform="translate(9233)"><use xlink:href="#k"/><use x="278" xlink:href="#e"/><use x="1131" xlink:href="#m"/></g><use x="10865" xlink:href="#o"/><use x="11865" xlink:href="#j"/><g transform="translate(12797)"><use xlink:href="#k"/><use x="278" xlink:href="#e"/><use x="1131" xlink:href="#m"/></g><use x="14373" xlink:href="#j"/><g transform="translate(15304)"><use xlink:href="#k"/><use x="278" xlink:href="#g"/><use x="1042" xlink:href="#m"/></g></g><g transform="matrix(1 0 0 -1 5891 1476)"><use xlink:href="#i"/><use x="1056" xlink:href="#j"/><g transform="translate(1987)"><use xlink:href="#k"/><use x="278" xlink:href="#e"/><use x="1131" xlink:href="#g"/><use x="1894" xlink:href="#m"/></g><use x="4382" xlink:href="#l"/><use x="5383" xlink:href="#j"/><g transform="translate(6314)"><use xlink:href="#k"/><use x="278" xlink:href="#e"/><use x="1131" xlink:href="#m"/></g><use x="7890" xlink:href="#j"/><g transform="translate(8821)"><use xlink:href="#k"/><use x="278" xlink:href="#g"/><use x="1042" xlink:href="#m"/></g></g></g></svg>